<?xml version="1.0" encoding="UTF-8"?>
<svg width="32px" height="32px" viewBox="0 0 32 32" version="1.1" xmlns="http://www.w3.org/2000/svg">
  <g stroke="none" stroke-width="1" fill="none" fill-rule="evenodd">
    <g transform="translate(-783, -772)" fill="currentColor" fill-rule="nonzero">
      <g transform="translate(783, 772)">
        <path d="M14.0968831,11.2440222 L13.5652316,11.2440222 C13.3215579,11.2440222 13.1221886,11.0447619 13.1221886,10.8012216 L13.1221886,7.44280058 C13.1221886,7.19926026 13.3215579,7 13.5652316,7 L14.0968831,7 C14.3405567,7 14.539926,7.19926026 14.539926,7.44280058 L14.539926,10.8012216 C14.539926,11.0447619 14.3405567,11.2440222 14.0968831,11.2440222 Z M17.4480597,24 L16.9164082,24 C16.6727346,24 16.4733653,23.8007397 16.4733653,23.5571994 L16.4733653,20.1987784 C16.4733653,19.9552381 16.6727346,19.7559778 16.9164082,19.7559778 L17.4480597,19.7559778 C17.6917333,19.7559778 17.8911027,19.9552381 17.8911027,20.1987784 L17.8911027,23.5571994 C17.8911027,23.8007397 17.6917333,24 17.4480597,24 L17.4480597,24 Z M21.703487,21.3274771 L21.3275651,21.7031934 C21.1552214,21.8754428 20.8732246,21.8754428 20.7011024,21.7031934 L18.3248417,19.3282324 C18.152498,19.155983 18.152498,18.8741404 18.3248417,18.7021124 L18.7007636,18.3263961 C18.8731073,18.1541467 19.1551041,18.1541467 19.3272263,18.3263961 L21.7032655,20.7011357 C21.8758307,20.8733851 21.8758307,21.1552277 21.703487,21.3274771 L21.703487,21.3274771 Z M12.6813609,12.310286 L12.305439,12.6860023 C12.1330953,12.8582517 11.8510985,12.8582517 11.6789763,12.6860023 L9.30271559,10.3112628 C9.1303719,10.1390133 9.1303719,9.85717076 9.30271559,9.68514274 L9.67863751,9.30942644 C9.85098121,9.13717702 10.132978,9.13717702 10.3051002,9.30942644 L12.6811394,11.684166 C12.8537046,11.856194 12.8537046,12.1380366 12.6813609,12.310286 L12.6813609,12.310286 Z M24,16.9202829 L24,17.4516436 C24,17.6951839 23.8006307,17.8944442 23.5569571,17.8944442 L20.196698,17.8944442 C19.9530244,17.8944442 19.7536551,17.6951839 19.7536551,17.4516436 L19.7536551,16.9202829 C19.7536551,16.6767426 19.9530244,16.4774823 20.196698,16.4774823 L23.5569571,16.4774823 C23.8006307,16.4774823 24,16.6767426 24,16.9202829 Z M11.2463449,13.5616404 L11.2463449,14.0930011 C11.2463449,14.3365415 11.0469756,14.5358017 10.803302,14.5358017 L7.44304292,14.5358017 C7.19936932,14.5358017 7,14.3365415 7,14.0930011 L7,13.5616404 C7,13.3181001 7.19936932,13.1188399 7.44304292,13.1188399 L10.803302,13.1188399 C11.0469756,13.1188399 11.2463449,13.3181001 11.2463449,13.5616404 Z M12.9647976,14.9747278 C12.7053263,14.7153984 12.284792,14.7153939 12.0253151,14.9747178 L7.29063616,19.7066055 L7.29063616,19.7066055 C7.11829246,19.878855 7.11829246,20.1606975 7.29063616,20.3327256 L10.674155,23.7143936 C10.8464987,23.8866431 11.1284955,23.8866431 11.3006177,23.7143936 L15.9525683,19.0649875 C16.2575247,18.7601979 16.2576599,18.2659012 15.9528704,17.9609449 C15.9527697,17.9608442 15.9526691,17.9607435 15.9525683,17.9606428 L15.9524197,17.9604943 C15.5903793,17.5986519 15.1408039,17.3367328 14.6474747,17.2002435 C14.1792534,17.0707009 13.8107387,16.7091779 13.6722522,16.2435235 L13.6238512,16.0807776 C13.4996052,15.6630062 13.2730783,15.2828399 12.9647976,14.9747278 Z M18.015487,16.0792939 C18.2749583,16.3386233 18.6954926,16.3386278 18.9549695,16.0793039 L23.6896484,11.3474161 L23.6896484,11.3474161 C23.8619921,11.1751667 23.8619921,10.8933241 23.6896484,10.7212961 L20.3063512,7.33962805 C20.1340075,7.16737862 19.8520106,7.16737862 19.6798885,7.33962805 L15.0279378,11.9890342 C14.7229814,12.2938237 14.7228462,12.7881204 15.0276357,13.0930768 C15.0277364,13.0931775 15.0278371,13.0932782 15.0279378,13.0933788 L15.0281619,13.0936029 C15.3901537,13.4553967 15.8396628,13.7172885 16.3329207,13.8537781 C16.8010757,13.9833215 17.1695336,14.3448025 17.308002,14.8103958 L17.3564334,14.9732441 C17.4806794,15.3910155 17.7072063,15.7711818 18.015487,16.0792939 Z"></path>
      </g>
    </g>
  </g>
</svg>
